<mxfile host="app.diagrams.net" agent="Mozilla/5.0 (Macintosh; Intel Mac OS X 10_15_7) AppleWebKit/605.1.15 (KHTML, like Gecko) Version/18.0.1 Safari/605.1.15" version="26.0.4">
  <diagram id="C5RBs43oDa-KdzZeNtuy" name="Page-1">
    <mxGraphModel dx="995" dy="539" grid="1" gridSize="10" guides="1" tooltips="1" connect="1" arrows="1" fold="1" page="1" pageScale="1" pageWidth="827" pageHeight="1169" math="0" shadow="0">
      <root>
        <mxCell id="WIyWlLk6GJQsqaUBKTNV-0" />
        <mxCell id="WIyWlLk6GJQsqaUBKTNV-1" parent="WIyWlLk6GJQsqaUBKTNV-0" />
        <mxCell id="zkfFHV4jXpPFQw0GAbJ--0" value="CAT" style="swimlane;fontStyle=3;align=center;verticalAlign=top;childLayout=stackLayout;horizontal=1;startSize=26;horizontalStack=0;resizeParent=1;resizeLast=0;collapsible=1;marginBottom=0;rounded=0;shadow=0;strokeWidth=1;" parent="WIyWlLk6GJQsqaUBKTNV-1" vertex="1">
          <mxGeometry x="40" y="80" width="160" height="86" as="geometry">
            <mxRectangle x="230" y="140" width="160" height="26" as="alternateBounds" />
          </mxGeometry>
        </mxCell>
        <mxCell id="DN9kWKgMx7CGSCUvLQrN-3" value="&lt;u&gt;&lt;b&gt;cat.id&lt;/b&gt;&lt;/u&gt;" style="text;html=1;align=center;verticalAlign=middle;resizable=0;points=[];autosize=1;strokeColor=none;fillColor=none;" vertex="1" parent="zkfFHV4jXpPFQw0GAbJ--0">
          <mxGeometry y="26" width="160" height="30" as="geometry" />
        </mxCell>
        <mxCell id="DN9kWKgMx7CGSCUvLQrN-4" value="name" style="text;html=1;align=center;verticalAlign=middle;resizable=0;points=[];autosize=1;strokeColor=none;fillColor=none;" vertex="1" parent="zkfFHV4jXpPFQw0GAbJ--0">
          <mxGeometry y="56" width="160" height="30" as="geometry" />
        </mxCell>
        <mxCell id="zkfFHV4jXpPFQw0GAbJ--6" value="Commande" style="swimlane;fontStyle=1;align=center;verticalAlign=top;childLayout=stackLayout;horizontal=1;startSize=26;horizontalStack=0;resizeParent=1;resizeLast=0;collapsible=1;marginBottom=0;rounded=0;shadow=0;strokeWidth=1;" parent="WIyWlLk6GJQsqaUBKTNV-1" vertex="1">
          <mxGeometry x="640" y="80" width="160" height="146" as="geometry">
            <mxRectangle x="130" y="380" width="160" height="26" as="alternateBounds" />
          </mxGeometry>
        </mxCell>
        <mxCell id="DN9kWKgMx7CGSCUvLQrN-59" value="" style="endArrow=classic;startArrow=classic;html=1;rounded=0;" edge="1" parent="zkfFHV4jXpPFQw0GAbJ--6">
          <mxGeometry width="50" height="50" relative="1" as="geometry">
            <mxPoint x="20" y="50" as="sourcePoint" />
            <mxPoint x="60" y="220" as="targetPoint" />
          </mxGeometry>
        </mxCell>
        <mxCell id="DN9kWKgMx7CGSCUvLQrN-35" value="&lt;u&gt;&lt;b&gt;commande.id&lt;/b&gt;&lt;/u&gt;" style="text;html=1;align=center;verticalAlign=middle;resizable=0;points=[];autosize=1;strokeColor=none;fillColor=none;" vertex="1" parent="zkfFHV4jXpPFQw0GAbJ--6">
          <mxGeometry y="26" width="160" height="30" as="geometry" />
        </mxCell>
        <mxCell id="DN9kWKgMx7CGSCUvLQrN-36" value="client.id" style="text;html=1;align=center;verticalAlign=middle;resizable=0;points=[];autosize=1;strokeColor=none;fillColor=none;fontStyle=4" vertex="1" parent="zkfFHV4jXpPFQw0GAbJ--6">
          <mxGeometry y="56" width="160" height="30" as="geometry" />
        </mxCell>
        <mxCell id="DN9kWKgMx7CGSCUvLQrN-37" value="date" style="text;html=1;align=center;verticalAlign=middle;resizable=0;points=[];autosize=1;strokeColor=none;fillColor=none;" vertex="1" parent="zkfFHV4jXpPFQw0GAbJ--6">
          <mxGeometry y="86" width="160" height="30" as="geometry" />
        </mxCell>
        <mxCell id="DN9kWKgMx7CGSCUvLQrN-38" value="status" style="text;html=1;align=center;verticalAlign=middle;resizable=0;points=[];autosize=1;strokeColor=none;fillColor=none;" vertex="1" parent="zkfFHV4jXpPFQw0GAbJ--6">
          <mxGeometry y="116" width="160" height="30" as="geometry" />
        </mxCell>
        <mxCell id="zkfFHV4jXpPFQw0GAbJ--13" value="Fournisseur" style="swimlane;fontStyle=1;align=center;verticalAlign=top;childLayout=stackLayout;horizontal=1;startSize=26;horizontalStack=0;resizeParent=1;resizeLast=0;collapsible=1;marginBottom=0;rounded=0;shadow=0;strokeWidth=1;" parent="WIyWlLk6GJQsqaUBKTNV-1" vertex="1">
          <mxGeometry x="440" y="80" width="160" height="116" as="geometry">
            <mxRectangle x="340" y="380" width="170" height="26" as="alternateBounds" />
          </mxGeometry>
        </mxCell>
        <mxCell id="DN9kWKgMx7CGSCUvLQrN-13" value="fournisseur.id" style="text;html=1;align=center;verticalAlign=middle;resizable=0;points=[];autosize=1;strokeColor=none;fillColor=none;fontStyle=5" vertex="1" parent="zkfFHV4jXpPFQw0GAbJ--13">
          <mxGeometry y="26" width="160" height="30" as="geometry" />
        </mxCell>
        <mxCell id="DN9kWKgMx7CGSCUvLQrN-17" value="nom" style="text;html=1;align=center;verticalAlign=middle;resizable=0;points=[];autosize=1;strokeColor=none;fillColor=none;" vertex="1" parent="zkfFHV4jXpPFQw0GAbJ--13">
          <mxGeometry y="56" width="160" height="30" as="geometry" />
        </mxCell>
        <mxCell id="DN9kWKgMx7CGSCUvLQrN-22" value="contacts" style="text;html=1;align=center;verticalAlign=middle;resizable=0;points=[];autosize=1;strokeColor=none;fillColor=none;" vertex="1" parent="zkfFHV4jXpPFQw0GAbJ--13">
          <mxGeometry y="86" width="160" height="30" as="geometry" />
        </mxCell>
        <mxCell id="zkfFHV4jXpPFQw0GAbJ--17" value="Produit" style="swimlane;fontStyle=1;align=center;verticalAlign=top;childLayout=stackLayout;horizontal=1;startSize=26;horizontalStack=0;resizeParent=1;resizeLast=0;collapsible=1;marginBottom=0;rounded=0;shadow=0;strokeWidth=1;" parent="WIyWlLk6GJQsqaUBKTNV-1" vertex="1">
          <mxGeometry x="240" y="80" width="160" height="216" as="geometry">
            <mxRectangle x="550" y="140" width="160" height="26" as="alternateBounds" />
          </mxGeometry>
        </mxCell>
        <mxCell id="DN9kWKgMx7CGSCUvLQrN-58" value="" style="endArrow=classic;startArrow=classic;html=1;rounded=0;entryX=0.033;entryY=0.38;entryDx=0;entryDy=0;entryPerimeter=0;" edge="1" parent="zkfFHV4jXpPFQw0GAbJ--17" target="DN9kWKgMx7CGSCUvLQrN-56">
          <mxGeometry width="50" height="50" relative="1" as="geometry">
            <mxPoint x="120" y="50" as="sourcePoint" />
            <mxPoint x="170" as="targetPoint" />
          </mxGeometry>
        </mxCell>
        <mxCell id="DN9kWKgMx7CGSCUvLQrN-5" value="&lt;u&gt;&lt;b&gt;produit.id&lt;/b&gt;&lt;/u&gt;" style="text;html=1;align=center;verticalAlign=middle;resizable=0;points=[];autosize=1;strokeColor=none;fillColor=none;" vertex="1" parent="zkfFHV4jXpPFQw0GAbJ--17">
          <mxGeometry y="26" width="160" height="30" as="geometry" />
        </mxCell>
        <mxCell id="DN9kWKgMx7CGSCUvLQrN-6" value="name" style="text;html=1;align=center;verticalAlign=middle;resizable=0;points=[];autosize=1;strokeColor=none;fillColor=none;" vertex="1" parent="zkfFHV4jXpPFQw0GAbJ--17">
          <mxGeometry y="56" width="160" height="30" as="geometry" />
        </mxCell>
        <mxCell id="DN9kWKgMx7CGSCUvLQrN-7" value="description" style="text;html=1;align=center;verticalAlign=middle;resizable=0;points=[];autosize=1;strokeColor=none;fillColor=none;" vertex="1" parent="zkfFHV4jXpPFQw0GAbJ--17">
          <mxGeometry y="86" width="160" height="30" as="geometry" />
        </mxCell>
        <mxCell id="DN9kWKgMx7CGSCUvLQrN-8" value="unit_price" style="text;html=1;align=center;verticalAlign=middle;resizable=0;points=[];autosize=1;strokeColor=none;fillColor=none;" vertex="1" parent="zkfFHV4jXpPFQw0GAbJ--17">
          <mxGeometry y="116" width="160" height="30" as="geometry" />
        </mxCell>
        <mxCell id="DN9kWKgMx7CGSCUvLQrN-9" value="quantity" style="text;html=1;align=center;verticalAlign=middle;resizable=0;points=[];autosize=1;strokeColor=none;fillColor=none;" vertex="1" parent="zkfFHV4jXpPFQw0GAbJ--17">
          <mxGeometry y="146" width="160" height="30" as="geometry" />
        </mxCell>
        <mxCell id="DN9kWKgMx7CGSCUvLQrN-10" value="&lt;u&gt;cat.id&lt;/u&gt;" style="text;html=1;align=center;verticalAlign=middle;resizable=0;points=[];autosize=1;strokeColor=none;fillColor=none;" vertex="1" parent="zkfFHV4jXpPFQw0GAbJ--17">
          <mxGeometry y="176" width="160" height="30" as="geometry" />
        </mxCell>
        <mxCell id="DN9kWKgMx7CGSCUvLQrN-1" value="Ligne commande" style="swimlane;whiteSpace=wrap;html=1;" vertex="1" parent="WIyWlLk6GJQsqaUBKTNV-1">
          <mxGeometry x="10" y="270" width="200" height="200" as="geometry" />
        </mxCell>
        <mxCell id="DN9kWKgMx7CGSCUvLQrN-40" value="lignecommande.id" style="text;html=1;align=center;verticalAlign=middle;resizable=0;points=[];autosize=1;strokeColor=none;fillColor=none;" vertex="1" parent="DN9kWKgMx7CGSCUvLQrN-1">
          <mxGeometry x="40" y="36" width="120" height="30" as="geometry" />
        </mxCell>
        <mxCell id="DN9kWKgMx7CGSCUvLQrN-43" value="&lt;u&gt;commande.id&lt;/u&gt;" style="text;html=1;align=center;verticalAlign=middle;resizable=0;points=[];autosize=1;strokeColor=none;fillColor=none;" vertex="1" parent="DN9kWKgMx7CGSCUvLQrN-1">
          <mxGeometry x="45" y="66" width="100" height="30" as="geometry" />
        </mxCell>
        <mxCell id="DN9kWKgMx7CGSCUvLQrN-44" value="&lt;u&gt;produit.id&lt;/u&gt;" style="text;html=1;align=center;verticalAlign=middle;resizable=0;points=[];autosize=1;strokeColor=none;fillColor=none;" vertex="1" parent="DN9kWKgMx7CGSCUvLQrN-1">
          <mxGeometry x="60" y="100" width="70" height="30" as="geometry" />
        </mxCell>
        <mxCell id="DN9kWKgMx7CGSCUvLQrN-46" value="quantity" style="text;html=1;align=center;verticalAlign=middle;resizable=0;points=[];autosize=1;strokeColor=none;fillColor=none;" vertex="1" parent="DN9kWKgMx7CGSCUvLQrN-1">
          <mxGeometry x="60" y="130" width="70" height="30" as="geometry" />
        </mxCell>
        <mxCell id="DN9kWKgMx7CGSCUvLQrN-47" value="unit_price" style="text;html=1;align=center;verticalAlign=middle;resizable=0;points=[];autosize=1;strokeColor=none;fillColor=none;" vertex="1" parent="DN9kWKgMx7CGSCUvLQrN-1">
          <mxGeometry x="55" y="160" width="80" height="30" as="geometry" />
        </mxCell>
        <mxCell id="DN9kWKgMx7CGSCUvLQrN-2" value="Client" style="swimlane;whiteSpace=wrap;html=1;" vertex="1" parent="WIyWlLk6GJQsqaUBKTNV-1">
          <mxGeometry x="440" y="260" width="210" height="140" as="geometry" />
        </mxCell>
        <mxCell id="DN9kWKgMx7CGSCUvLQrN-23" value="&lt;u&gt;&lt;b&gt;client.id&lt;/b&gt;&lt;/u&gt;" style="text;html=1;align=center;verticalAlign=middle;resizable=0;points=[];autosize=1;strokeColor=none;fillColor=none;" vertex="1" parent="DN9kWKgMx7CGSCUvLQrN-2">
          <mxGeometry x="65" y="26" width="70" height="30" as="geometry" />
        </mxCell>
        <mxCell id="DN9kWKgMx7CGSCUvLQrN-26" value="nom" style="text;html=1;align=center;verticalAlign=middle;resizable=0;points=[];autosize=1;strokeColor=none;fillColor=none;" vertex="1" parent="DN9kWKgMx7CGSCUvLQrN-2">
          <mxGeometry x="75" y="56" width="50" height="30" as="geometry" />
        </mxCell>
        <mxCell id="DN9kWKgMx7CGSCUvLQrN-31" value="address" style="text;html=1;align=center;verticalAlign=middle;resizable=0;points=[];autosize=1;strokeColor=none;fillColor=none;" vertex="1" parent="DN9kWKgMx7CGSCUvLQrN-2">
          <mxGeometry x="65" y="86" width="70" height="30" as="geometry" />
        </mxCell>
        <mxCell id="DN9kWKgMx7CGSCUvLQrN-33" value="contacts" style="text;html=1;align=center;verticalAlign=middle;resizable=0;points=[];autosize=1;strokeColor=none;fillColor=none;" vertex="1" parent="DN9kWKgMx7CGSCUvLQrN-2">
          <mxGeometry x="65" y="116" width="70" height="30" as="geometry" />
        </mxCell>
        <mxCell id="DN9kWKgMx7CGSCUvLQrN-39" value="" style="endArrow=classic;startArrow=classic;html=1;rounded=0;entryX=-0.006;entryY=0.267;entryDx=0;entryDy=0;entryPerimeter=0;" edge="1" parent="DN9kWKgMx7CGSCUvLQrN-2" target="DN9kWKgMx7CGSCUvLQrN-36">
          <mxGeometry width="50" height="50" relative="1" as="geometry">
            <mxPoint x="130" y="50" as="sourcePoint" />
            <mxPoint x="180" as="targetPoint" />
          </mxGeometry>
        </mxCell>
        <mxCell id="DN9kWKgMx7CGSCUvLQrN-12" value="" style="endArrow=classic;startArrow=classic;html=1;rounded=0;entryX=0;entryY=0.5;entryDx=0;entryDy=0;entryPerimeter=0;exitX=1.013;exitY=0.367;exitDx=0;exitDy=0;exitPerimeter=0;" edge="1" parent="WIyWlLk6GJQsqaUBKTNV-1" source="DN9kWKgMx7CGSCUvLQrN-3" target="DN9kWKgMx7CGSCUvLQrN-10">
          <mxGeometry width="50" height="50" relative="1" as="geometry">
            <mxPoint x="180" y="160" as="sourcePoint" />
            <mxPoint x="230" y="110" as="targetPoint" />
          </mxGeometry>
        </mxCell>
        <mxCell id="DN9kWKgMx7CGSCUvLQrN-50" value="" style="endArrow=classic;startArrow=classic;html=1;rounded=0;entryX=-0.002;entryY=0.749;entryDx=0;entryDy=0;entryPerimeter=0;" edge="1" parent="WIyWlLk6GJQsqaUBKTNV-1" target="DN9kWKgMx7CGSCUvLQrN-5">
          <mxGeometry width="50" height="50" relative="1" as="geometry">
            <mxPoint x="210" y="380" as="sourcePoint" />
            <mxPoint x="260" y="330" as="targetPoint" />
          </mxGeometry>
        </mxCell>
        <mxCell id="DN9kWKgMx7CGSCUvLQrN-51" value="" style="endArrow=classic;startArrow=classic;html=1;rounded=0;entryX=-0.01;entryY=0.566;entryDx=0;entryDy=0;entryPerimeter=0;" edge="1" parent="WIyWlLk6GJQsqaUBKTNV-1" target="DN9kWKgMx7CGSCUvLQrN-35">
          <mxGeometry width="50" height="50" relative="1" as="geometry">
            <mxPoint x="200" y="346" as="sourcePoint" />
            <mxPoint x="250" y="296" as="targetPoint" />
          </mxGeometry>
        </mxCell>
        <mxCell id="DN9kWKgMx7CGSCUvLQrN-52" value="Vertical Container" style="swimlane;whiteSpace=wrap;html=1;" vertex="1" parent="WIyWlLk6GJQsqaUBKTNV-1">
          <mxGeometry x="700" y="260" width="200" height="110" as="geometry" />
        </mxCell>
        <mxCell id="DN9kWKgMx7CGSCUvLQrN-54" value="&lt;u&gt;commande.id&lt;/u&gt;" style="text;html=1;align=center;verticalAlign=middle;resizable=0;points=[];autosize=1;strokeColor=none;fillColor=none;" vertex="1" parent="DN9kWKgMx7CGSCUvLQrN-52">
          <mxGeometry x="50" y="36" width="100" height="30" as="geometry" />
        </mxCell>
        <mxCell id="DN9kWKgMx7CGSCUvLQrN-56" value="&lt;u&gt;produit.id&lt;/u&gt;" style="text;html=1;align=center;verticalAlign=middle;resizable=0;points=[];autosize=1;strokeColor=none;fillColor=none;" vertex="1" parent="DN9kWKgMx7CGSCUvLQrN-52">
          <mxGeometry x="65" y="75" width="70" height="30" as="geometry" />
        </mxCell>
      </root>
    </mxGraphModel>
  </diagram>
</mxfile>
